<svg width="32" height="32" viewBox="0 0 32 32" fill="none" xmlns="http://www.w3.org/2000/svg">
<g clip-path="url(#clip0_88_17704)">
<mask id="mask0_88_17704" style="mask-type:luminance" maskUnits="userSpaceOnUse" x="0" y="0" width="32" height="32">
<path d="M32 16C32 7.16344 24.8366 0 16 0C7.16344 0 0 7.16344 0 16C0 24.8366 7.16344 32 16 32C24.8366 32 32 24.8366 32 16Z" fill="white"/>
</mask>
<g mask="url(#mask0_88_17704)">
<path d="M32 0H0V32H32V0Z" fill="#FFDBCC"/>
<path d="M31.836 30.0088C35.944 21.1993 32.1326 10.7277 23.3231 6.61972C14.5136 2.51178 4.04193 6.32315 -0.0660114 15.1327C-4.17395 23.9422 -0.36258 34.4138 8.44692 38.5218C17.2564 42.6297 27.7281 38.8183 31.836 30.0088Z" fill="#FC4C02"/>
<path d="M10.8384 20.8251C10.9154 21.7058 11.4558 22.5096 12.3406 23.0597C13.2254 23.6098 14.3822 23.8611 15.5564 23.7584C16.7307 23.6556 17.8262 23.2073 18.6021 22.5119C19.3779 21.8165 19.7705 20.931 19.6934 20.0504" fill="white"/>
<path d="M12.6648 16.2039C12.622 15.7148 12.29 15.3444 11.9232 15.3765C11.5564 15.4086 11.2937 15.831 11.3365 16.3201C11.3793 16.8091 11.7113 17.1796 12.0781 17.1475C12.4449 17.1154 12.7076 16.6929 12.6648 16.2039Z" fill="white"/>
<path d="M17.9778 15.739C17.935 15.25 17.6029 14.8795 17.2362 14.9116C16.8694 14.9437 16.6067 15.3662 16.6495 15.8552C16.6923 16.3443 17.0243 16.7147 17.3911 16.6826C17.7579 16.6505 18.0205 16.2281 17.9778 15.739Z" fill="white"/>
</g>
</g>
<defs>
<clipPath id="clip0_88_17704">
<rect width="32" height="32" fill="white"/>
</clipPath>
</defs>
</svg>
